# xmcd CD Database Entry
#
# Track frame offsets:
# 150
# 7121
# 16433
# 22272
# 29298
# 39819
# 42246
# 45818
# 60084
# 66072
# 71319
# 82761
# 86327
# 93531
# 102085
# 104515
# 113767
# 119935
# 124849
# 130741
# 135008
# 142061
# 149280
# 151711
# 162007
# 168483
# 172867
# 177121
# 182095
# 185152
# 193426
# 201295
# 203734
# 212326
# 219706
# 225136
# 228934
# 234329
# 242248
# 249927
# 252341
# 261873
# 268840
# 273876
# 280432
# 286633
# 295024
# 305819
# 308231
# 318402
# 325250
# 329878
# 339041
# 345970
# 348850
# 358560
#
# Disc length: 4790 seconds
#
# Revision: 1
# Processed by: cddbd v1.4PL0 Copyright (c) Steve Scherf et al.
# Submitted via: tcd 2.0b
#
DISCID=1e12b438
DTITLE=Descoñecido - Descoñecido
DYEAR=1900
DGENRE=
TTITLE0=Pista 1
TTITLE1=Pista 2
TTITLE2=Pista 3
TTITLE3=Pista 4
TTITLE4=Pista 5
TTITLE5=Pista 6
TTITLE6=Pista 7
TTITLE7=Pista 8
TTITLE8=Pista 9
TTITLE9=Pista 10
TTITLE10=Pista 11
TTITLE11=Pista 12
TTITLE12=Pista 13
TTITLE13=Pista 14
TTITLE14=Pista 15
TTITLE15=Pista 16
TTITLE16=Pista 17
TTITLE17=Pista 18
TTITLE18=Pista 19
TTITLE19=Pista 20
TTITLE20=Pista 21
TTITLE21=Pista 22
TTITLE22=Pista 23
TTITLE23=Pista 24
TTITLE24=Pista 25
TTITLE25=Pista 26
TTITLE26=Pista 27
TTITLE27=Pista 28
TTITLE28=Pista 29
TTITLE29=Pista 30
TTITLE30=Pista 31
TTITLE31=Pista 32
TTITLE32=Pista 33
TTITLE33=Pista 34
TTITLE34=Pista 35
TTITLE35=Pista 36
TTITLE36=Pista 37
TTITLE37=Pista 38
TTITLE38=Pista 39
TTITLE39=Pista 40
TTITLE40=Pista 41
TTITLE41=Pista 42
TTITLE42=Pista 43
TTITLE43=Pista 44
TTITLE44=Pista 45
TTITLE45=Pista 46
TTITLE46=Pista 47
TTITLE47=Pista 48
TTITLE48=Pista 49
TTITLE49=Pista 50
TTITLE50=Pista 51
TTITLE51=Pista 52
TTITLE52=Pista 53
TTITLE53=Pista 54
TTITLE54=Pista 55
TTITLE55=Pista 56
EXTD=
EXTT0=
EXTT1=
EXTT2=
EXTT3=
EXTT4=
EXTT5=
EXTT6=
EXTT7=
EXTT8=
EXTT9=
EXTT10=
EXTT11=
EXTT12=
EXTT13=
EXTT14=
EXTT15=
EXTT16=
EXTT17=
EXTT18=
EXTT19=
EXTT20=
EXTT21=
EXTT22=
EXTT23=
EXTT24=
EXTT25=
EXTT26=
EXTT27=
EXTT28=
EXTT29=
EXTT30=
EXTT31=
EXTT32=
EXTT33=
EXTT34=
EXTT35=
EXTT36=
EXTT37=
EXTT38=
EXTT39=
EXTT40=
EXTT41=
EXTT42=
EXTT43=
EXTT44=
EXTT45=
EXTT46=
EXTT47=
EXTT48=
EXTT49=
EXTT50=
EXTT51=
EXTT52=
EXTT53=
EXTT54=
EXTT55=
PLAYORDER=
